<?xml version="1.0" encoding="utf-8"?>
<!-- Generator: Adobe Illustrator 16.0.0, SVG Export Plug-In . SVG Version: 6.00 Build 0)  -->
<!DOCTYPE svg PUBLIC "-//W3C//DTD SVG 1.1//EN" "http://www.w3.org/Graphics/SVG/1.1/DTD/svg11.dtd">
<svg version="1.1" id="Layer_1" xmlns="http://www.w3.org/2000/svg" xmlns:xlink="http://www.w3.org/1999/xlink" x="0px" y="0px"
	 width="2000px" height="2821px" viewBox="0 0 2000 2821" enable-background="new 0 0 2000 2821" xml:space="preserve">
<g>
	<g>
		<g>
			<line fill="none" stroke="#00AEEF" stroke-width="4" x1="36.555" y1="-25.167" x2="36.555" y2="-19.167"/>
			
				<line fill="none" stroke="#00AEEF" stroke-width="4" stroke-dasharray="11.9585,11.9585" x1="36.555" y1="-7.208" x2="36.555" y2="2809.021"/>
			<line fill="none" stroke="#00AEEF" stroke-width="4" x1="36.555" y1="2815" x2="36.555" y2="2821"/>
		</g>
	</g>
	<g>
		<g>
			<line fill="none" stroke="#00AEEF" stroke-width="4" x1="276.506" y1="-25.167" x2="276.506" y2="-19.167"/>
			
				<line fill="none" stroke="#00AEEF" stroke-width="4" stroke-dasharray="11.9585,11.9585" x1="276.506" y1="-7.208" x2="276.506" y2="2809.021"/>
			<line fill="none" stroke="#00AEEF" stroke-width="4" x1="276.506" y1="2815" x2="276.506" y2="2821"/>
		</g>
	</g>
	<g>
		<g>
			<line fill="none" stroke="#00AEEF" stroke-width="4" x1="1554.251" y1="-25.167" x2="1554.251" y2="-19.167"/>
			
				<line fill="none" stroke="#00AEEF" stroke-width="4" stroke-dasharray="11.9585,11.9585" x1="1554.251" y1="-7.208" x2="1554.251" y2="2809.021"/>
			<line fill="none" stroke="#00AEEF" stroke-width="4" x1="1554.251" y1="2815" x2="1554.251" y2="2821"/>
		</g>
	</g>
	<g>
		<g>
			<line fill="none" stroke="#00AEEF" stroke-width="4" x1="1776.207" y1="-25.167" x2="1776.207" y2="-19.167"/>
			
				<line fill="none" stroke="#00AEEF" stroke-width="4" stroke-dasharray="11.9585,11.9585" x1="1776.207" y1="-7.208" x2="1776.207" y2="2809.021"/>
			<line fill="none" stroke="#00AEEF" stroke-width="4" x1="1776.207" y1="2815" x2="1776.207" y2="2821"/>
		</g>
	</g>
	<g>
		<g>
			<line fill="none" stroke="#00AEEF" stroke-width="4" x1="-342.052" y1="639.016" x2="-336.052" y2="639.016"/>
			
				<line fill="none" stroke="#00AEEF" stroke-width="4" stroke-dasharray="11.9585,11.9585" x1="-324.093" y1="639.016" x2="2492.135" y2="639.016"/>
			<line fill="none" stroke="#00AEEF" stroke-width="4" x1="2498.114" y1="639.016" x2="2504.114" y2="639.016"/>
		</g>
	</g>
	<g>
		<g>
			<line fill="none" stroke="#00AEEF" stroke-width="4" x1="-342.052" y1="879" x2="-336.052" y2="879"/>
			
				<line fill="none" stroke="#00AEEF" stroke-width="4" stroke-dasharray="11.9585,11.9585" x1="-324.093" y1="879" x2="2492.135" y2="879"/>
			<line fill="none" stroke="#00AEEF" stroke-width="4" x1="2498.114" y1="879" x2="2504.114" y2="879"/>
		</g>
	</g>
	<g>
		<g>
			<line fill="none" stroke="#00AEEF" stroke-width="4" x1="-342.052" y1="1162.333" x2="-336.052" y2="1162.333"/>
			
				<line fill="none" stroke="#00AEEF" stroke-width="4" stroke-dasharray="11.9585,11.9585" x1="-324.093" y1="1162.333" x2="2492.135" y2="1162.333"/>
			<line fill="none" stroke="#00AEEF" stroke-width="4" x1="2498.114" y1="1162.333" x2="2504.114" y2="1162.333"/>
		</g>
	</g>
	<g>
		<g>
			<line fill="none" stroke="#00AEEF" stroke-width="4" x1="-342.052" y1="1633.167" x2="-336.052" y2="1633.167"/>
			
				<line fill="none" stroke="#00AEEF" stroke-width="4" stroke-dasharray="11.9585,11.9585" x1="-324.093" y1="1633.167" x2="2492.135" y2="1633.167"/>
			<line fill="none" stroke="#00AEEF" stroke-width="4" x1="2498.114" y1="1633.167" x2="2504.114" y2="1633.167"/>
		</g>
	</g>
	<g>
		<g>
			<line fill="none" stroke="#00AEEF" stroke-width="4" x1="-342.052" y1="2162.334" x2="-336.052" y2="2162.334"/>
			
				<line fill="none" stroke="#00AEEF" stroke-width="4" stroke-dasharray="11.9585,11.9585" x1="-324.093" y1="2162.334" x2="2492.135" y2="2162.334"/>
			<line fill="none" stroke="#00AEEF" stroke-width="4" x1="2498.114" y1="2162.334" x2="2504.114" y2="2162.334"/>
		</g>
	</g>
	<g>
		<g>
			<polygon fill="#BC0F3C" points="870.607,880.281 896.106,880.281 824.11,1106.84 797.111,1106.84 			"/>
			<polygon fill="#BC0F3C" points="854.108,1106.84 876.607,1106.84 935.104,923.731 993.602,1106.84 1019.1,1106.84 
				948.604,880.281 923.105,880.281 			"/>
			<polygon fill="#BC0F3C" points="942.604,1106.84 968.103,1106.84 928.06,982.358 914.727,1020.292 			"/>
		</g>
		<g>
			<polygon fill="#BC0F3C" points="1264.086,1122.262 1271.895,1147.375 1041.379,1145.844 1033.111,1119.254 			"/>
			<polygon fill="#BC0F3C" points="1050.564,1175.389 1057.455,1197.547 1243.855,1199.088 1093.279,1312.771 1101.088,1337.885 
				1287.971,1199.078 1280.162,1173.965 			"/>
			<polygon fill="#BC0F3C" points="1077.664,1262.546 1085.473,1287.659 1187.752,1210.103 1148.766,1208.587 			"/>
		</g>
		<g>
			<polygon fill="#BC0F3C" points="1167.822,1575.17 1147.412,1590.98 1073.793,1364.98 1095.406,1348.239 			"/>
			<polygon fill="#BC0F3C" points="1049.779,1383.582 1031.77,1397.531 1091.021,1580.38 938.117,1470.075 917.705,1485.886 
				1105.387,1623.532 1125.799,1607.721 			"/>
			<polygon fill="#BC0F3C" points="978.939,1438.454 958.529,1454.264 1062.697,1529.082 1051.396,1490.449 			"/>
		</g>
		<g>
			<polygon fill="#BC0F3C" points="719.107,1628.517 698.165,1613.468 882.229,1469.889 904.403,1485.824 			"/>
			<polygon fill="#BC0F3C" points="857.59,1452.183 839.113,1438.903 690.096,1554.766 743.025,1369.852 722.083,1354.801 
				655.049,1582.482 675.991,1597.531 			"/>
			<polygon fill="#BC0F3C" points="784.909,1399.951 763.967,1384.901 728.211,1510.773 760.08,1487.487 			"/>
		</g>
		<g>
			<polygon fill="#BC0F3C" points="532.03,1197.314 539.816,1172.195 726.35,1312.322 718.104,1338.919 			"/>
			<polygon fill="#BC0F3C" points="735.513,1282.769 742.385,1260.605 591.72,1147.049 778.12,1145.352 785.909,1120.232 
				555.853,1120.479 548.065,1145.597 			"/>
			<polygon fill="#BC0F3C" points="762.544,1195.59 770.333,1170.471 643.528,1171.896 674.37,1196.617 			"/>
		</g>
		<polygon fill="#002664" points="806.059,1133.314 850.726,1133.314 832.059,1147.375 777.392,1322.384 804.059,1343.075 
			869.392,1133.314 899.392,1133.314 818.059,1390.665 742.726,1337.885 		"/>
		<polygon fill="#002664" points="917.705,1133.314 1010.613,1133.314 972.059,1255.925 925.393,1255.925 946.059,1239.624 
			968.103,1163.75 936.604,1163.75 899.392,1287.659 961.393,1287.659 909.059,1458.946 834.059,1400.321 849.392,1348.239 
			896.106,1348.239 874.726,1364.456 866.726,1390.665 892.726,1409.288 922.336,1316.867 857.59,1316.523 		"/>
		<path fill="#002664" d="M1073.793,1333.766l-54.693-175.876l-91.207,286.057l67.5-49.659h-19.5l24-76.558h39.5l7.055,21.189
			l-10.055,23.297L1073.793,1333.766z M1027.51,1272.895l5.234,16.6l-13.645-10.279l-13.643,10.279l5.232-16.6l-13.664-10.248
			l16.877,0.019l5.197-16.612l5.197,16.612l16.877-0.019L1027.51,1272.895z"/>
	</g>
	<g>
		<path fill="#002664" d="M446.263,1709.832c-3.436,0.86-5.913,1.718-7.435,2.576c-1.522,0.859-2.733,1.932-3.63,3.22
			c-0.898,1.288-1.562,3.22-1.99,5.796c-0.43,2.576-0.644,6.557-0.644,11.942v101.28c0,5.23,0.176,9.056,0.527,11.475
			c0.351,2.42,0.937,4.332,1.756,5.737c0.819,1.404,2.029,2.575,3.63,3.513c1.599,0.937,4.195,1.873,7.786,2.81v5.737h-48.825
			v-5.737c4.449-1.092,7.532-2.342,9.25-3.747c1.716-1.404,2.887-3.472,3.512-6.205c0.624-2.731,0.937-7.26,0.937-13.582v-44.845
			c0-11.785,0.176-23.71,0.527-35.77s0.761-20.314,1.229-24.764h-1.991l-46.366,116.032h-13.465l-43.088-117.905h-1.991
			c0.39,4.762,0.761,13.388,1.112,25.876c0.352,12.489,0.527,25.331,0.527,38.521v42.854c0,5.23,0.175,9.056,0.527,11.475
			c0.351,2.42,0.937,4.332,1.756,5.737c0.819,1.404,2.029,2.575,3.629,3.513c1.599,0.937,4.195,1.873,7.786,2.81v5.737h-42.736
			v-5.737c4.839-1.248,8.079-2.635,9.718-4.156c1.639-1.522,2.711-3.688,3.22-6.499c0.507-2.81,0.761-7.102,0.761-12.879v-101.28
			c0-5.386-0.196-9.309-0.585-11.767c-0.392-2.459-1.036-4.371-1.932-5.737c-0.898-1.365-2.089-2.459-3.571-3.278
			c-1.483-0.82-4.021-1.736-7.61-2.752v-5.737h41.8l41.097,113.926l45.196-113.926h39.575V1709.832z"/>
		<path fill="#002664" d="M519.56,1863.918h-46.952v-5.737c4.058-1.014,6.927-2.243,8.606-3.688
			c1.678-1.443,2.849-3.434,3.513-5.971c0.662-2.536,0.995-6.068,0.995-10.597v-70.604c0-4.604-0.313-8.138-0.937-10.596
			c-0.625-2.459-1.756-4.43-3.396-5.913c-1.639-1.482-4.566-2.731-8.782-3.747v-5.737h46.952v5.737
			c-4.294,1.016-7.241,2.265-8.84,3.747c-1.601,1.483-2.713,3.494-3.337,6.03c-0.625,2.537-0.937,6.029-0.937,10.479v70.604
			c0,4.606,0.331,8.157,0.995,10.655c0.662,2.499,1.853,4.489,3.571,5.971c1.716,1.484,4.566,2.693,8.547,3.63V1863.918z"/>
		<path fill="#002664" d="M590.865,1741.328v5.737c-4.139,0.937-7.045,2.148-8.723,3.63c-1.68,1.483-2.83,3.475-3.454,5.972
			c-0.625,2.499-0.937,6.05-0.937,10.654v86.527h22.598c4.136,0,7.318-0.293,9.542-0.878c2.225-0.586,4.175-1.698,5.854-3.337
			c1.677-1.64,3.22-4.099,4.625-7.377c1.405-3.278,3.044-8.858,4.917-16.743h11.006l-2.341,38.404h-90.04v-5.737
			c4.058-1.014,6.927-2.243,8.606-3.688c1.678-1.443,2.849-3.434,3.513-5.971c0.662-2.536,0.995-6.068,0.995-10.597v-70.604
			c0-4.604-0.313-8.138-0.937-10.596c-0.625-2.459-1.756-4.43-3.396-5.913c-1.639-1.482-4.566-2.731-8.782-3.747v-5.737H590.865z"/>
		<path fill="#002664" d="M702.214,1741.328v5.737c-4.139,0.937-7.045,2.148-8.723,3.63c-1.68,1.483-2.83,3.475-3.454,5.972
			c-0.625,2.499-0.937,6.05-0.937,10.654v86.527h22.598c4.136,0,7.318-0.293,9.542-0.878c2.225-0.586,4.175-1.698,5.854-3.337
			c1.677-1.64,3.22-4.099,4.625-7.377c1.405-3.278,3.044-8.858,4.917-16.743h11.006l-2.341,38.404h-90.04v-5.737
			c4.058-1.014,6.927-2.243,8.606-3.688c1.678-1.443,2.849-3.434,3.513-5.971c0.662-2.536,0.995-6.068,0.995-10.597v-70.604
			c0-4.604-0.313-8.138-0.937-10.596c-0.625-2.459-1.756-4.43-3.396-5.913c-1.639-1.482-4.566-2.731-8.782-3.747v-5.737H702.214z"/>
		<path fill="#002664" d="M800.45,1750.93v44.492h18.617c3.044,0,5.424-0.39,7.142-1.17c1.716-0.78,3.121-2.067,4.215-3.864
			c1.092-1.795,2.146-4.566,3.161-8.313h10.187v36.297h-10.187c-0.86-3.278-1.835-5.893-2.927-7.845
			c-1.094-1.95-2.44-3.355-4.039-4.215c-1.601-0.858-4.118-1.288-7.552-1.288H800.45v49.293h29.271c3.747,0,6.771-0.252,9.074-0.761
			c2.301-0.507,4.253-1.423,5.854-2.751c1.599-1.327,3.121-3.337,4.566-6.03c1.443-2.693,3.22-7.277,5.327-13.758h11.006
			l-1.991,32.901h-96.948v-5.737c4.058-1.014,6.927-2.243,8.606-3.688c1.678-1.443,2.849-3.434,3.513-5.971
			c0.662-2.536,0.995-6.068,0.995-10.597v-70.604c0-4.604-0.313-8.138-0.937-10.596c-0.625-2.459-1.756-4.43-3.396-5.913
			c-1.639-1.482-4.566-2.731-8.782-3.747v-5.737h96.831v28.569h-11.006c-1.874-5.229-3.688-9.171-5.444-11.826
			c-1.756-2.652-3.767-4.508-6.03-5.562c-2.265-1.054-5.426-1.58-9.484-1.58H800.45z"/>
		<path fill="#002664" d="M983.456,1832.188c-0.313-4.371-0.509-8.527-0.585-12.47c-0.079-3.94-0.117-7.824-0.117-11.65v-40.746
			c0-4.604-0.333-8.155-0.995-10.654c-0.664-2.497-1.855-4.488-3.571-5.972c-1.718-1.481-4.566-2.693-8.547-3.63v-5.737h40.278
			v5.737c-4.139,1.016-7.046,2.245-8.724,3.688c-1.679,1.445-2.83,3.436-3.454,5.972c-0.626,2.537-0.937,6.07-0.937,10.596v97.416
			H983.69l-62.407-91.913c-1.796-2.652-3.553-5.579-5.269-8.781h-0.819c0.311,4.373,0.506,8.529,0.585,12.47
			c0.077,3.942,0.117,7.827,0.117,11.65v49.762c0,4.606,0.332,8.157,0.996,10.655c0.662,2.499,1.853,4.489,3.571,5.971
			c1.716,1.484,4.566,2.693,8.547,3.63v5.737h-40.278v-5.737c4.058-1.014,6.927-2.243,8.606-3.688
			c1.678-1.443,2.849-3.434,3.513-5.971c0.662-2.536,0.995-6.068,0.995-10.597v-70.604c0-4.604-0.313-8.138-0.937-10.596
			c-0.626-2.459-1.756-4.43-3.396-5.913c-1.639-1.482-4.566-2.731-8.782-3.747v-5.737h34.424l47.537,71.892
			c5.229,7.885,9.209,14.207,11.943,18.968H983.456z"/>
		<path fill="#002664" d="M1126.302,1832.188c-0.313-4.371-0.509-8.527-0.585-12.47c-0.079-3.94-0.117-7.824-0.117-11.65v-40.746
			c0-4.604-0.333-8.155-0.995-10.654c-0.664-2.497-1.855-4.488-3.571-5.972c-1.718-1.481-4.566-2.693-8.548-3.63v-5.737h40.278
			v5.737c-4.139,1.016-7.046,2.245-8.724,3.688c-1.679,1.445-2.83,3.436-3.454,5.972c-0.625,2.537-0.937,6.07-0.937,10.596v97.416
			h-13.113l-62.407-91.913c-1.797-2.652-3.553-5.579-5.269-8.781h-0.82c0.312,4.373,0.507,8.529,0.586,12.47
			c0.076,3.942,0.117,7.827,0.117,11.65v49.762c0,4.606,0.331,8.157,0.995,10.655c0.662,2.499,1.854,4.489,3.571,5.971
			c1.716,1.484,4.566,2.693,8.547,3.63v5.737h-40.277v-5.737c4.058-1.014,6.926-2.243,8.605-3.688
			c1.678-1.443,2.849-3.434,3.513-5.971c0.662-2.536,0.995-6.068,0.995-10.597v-70.604c0-4.604-0.313-8.138-0.937-10.596
			c-0.626-2.459-1.757-4.43-3.396-5.913c-1.64-1.482-4.566-2.731-8.781-3.747v-5.737h34.423l47.537,71.892
			c5.229,7.885,9.21,14.207,11.943,18.968H1126.302z"/>
		<path fill="#002664" d="M1221.845,1863.918h-46.952v-5.737c4.058-1.014,6.927-2.243,8.606-3.688
			c1.678-1.443,2.849-3.434,3.513-5.971c0.662-2.536,0.995-6.068,0.995-10.597v-70.604c0-4.604-0.313-8.138-0.938-10.596
			c-0.625-2.459-1.756-4.43-3.396-5.913c-1.639-1.482-4.565-2.731-8.781-3.747v-5.737h46.952v5.737
			c-4.294,1.016-7.241,2.265-8.84,3.747c-1.602,1.483-2.714,3.494-3.337,6.03c-0.626,2.537-0.938,6.029-0.938,10.479v70.604
			c0,4.606,0.331,8.157,0.995,10.655c0.663,2.499,1.854,4.489,3.571,5.971c1.717,1.484,4.566,2.693,8.548,3.63V1863.918z"/>
		<path fill="#002664" d="M1349.703,1816.264c0,5.777-0.392,11.182-1.171,16.217c-0.781,5.034-2.265,9.583-4.449,13.641
			c-2.187,4.06-5.094,7.533-8.723,10.421c-3.63,2.889-8.334,5.151-14.109,6.791c-5.777,1.639-12.568,2.458-20.373,2.458
			c-5.543,0-10.538-0.409-14.987-1.229c-4.449-0.819-8.371-2.087-11.767-3.805c-3.396-1.716-6.246-3.785-8.548-6.206
			c-2.303-2.418-4.196-5.248-5.679-8.488c-1.483-3.238-2.596-7.044-3.337-11.416c-0.742-4.371-1.112-9.912-1.112-16.626v-50.699
			c0-4.604-0.313-8.155-0.937-10.654c-0.626-2.497-1.776-4.468-3.454-5.913c-1.68-1.443-4.587-2.673-8.723-3.688v-5.737h46.951
			v5.737c-4.294,1.016-7.241,2.265-8.84,3.747c-1.601,1.483-2.713,3.494-3.337,6.03c-0.626,2.537-0.937,6.029-0.937,10.479v50.582
			c0,5.309,0.176,9.875,0.526,13.699c0.352,3.825,1.072,7.279,2.166,10.361c1.093,3.085,2.712,5.679,4.859,7.787
			c2.146,2.107,4.878,3.708,8.196,4.8c3.316,1.095,7.474,1.64,12.47,1.64c4.292,0,8.234-0.741,11.825-2.225
			c3.59-1.482,6.575-3.785,8.958-6.908c2.38-3.121,4.077-6.888,5.093-11.299c1.014-4.409,1.522-10.205,1.522-17.388v-51.05
			c0-4.525-0.293-8.059-0.879-10.596c-0.585-2.536-1.718-4.526-3.396-5.972c-1.679-1.443-4.586-2.673-8.723-3.688v-5.737h44.024
			v5.737c-4.294,1.016-7.241,2.265-8.84,3.747c-1.601,1.483-2.713,3.494-3.337,6.03c-0.626,2.537-0.937,6.029-0.937,10.479V1816.264
			z"/>
		<path fill="#002664" d="M1552.497,1709.832c-3.436,0.86-5.913,1.718-7.436,2.576c-1.521,0.859-2.732,1.932-3.629,3.22
			c-0.898,1.288-1.563,3.22-1.991,5.796c-0.43,2.576-0.644,6.557-0.644,11.942v101.28c0,5.23,0.176,9.056,0.527,11.475
			c0.351,2.42,0.937,4.332,1.756,5.737c0.819,1.404,2.029,2.575,3.63,3.513c1.599,0.937,4.194,1.873,7.786,2.81v5.737h-48.825
			v-5.737c4.449-1.092,7.532-2.342,9.25-3.747c1.716-1.404,2.887-3.472,3.513-6.205c0.624-2.731,0.937-7.26,0.937-13.582v-44.845
			c0-11.785,0.176-23.71,0.526-35.77c0.352-12.06,0.762-20.314,1.229-24.764h-1.99l-46.366,116.032h-13.465l-43.088-117.905h-1.99
			c0.39,4.762,0.761,13.388,1.112,25.876c0.351,12.489,0.526,25.331,0.526,38.521v42.854c0,5.23,0.176,9.056,0.527,11.475
			c0.351,2.42,0.937,4.332,1.756,5.737c0.82,1.404,2.029,2.575,3.63,3.513c1.599,0.937,4.195,1.873,7.786,2.81v5.737h-42.736v-5.737
			c4.839-1.248,8.079-2.635,9.718-4.156c1.64-1.522,2.712-3.688,3.22-6.499c0.507-2.81,0.762-7.102,0.762-12.879v-101.28
			c0-5.386-0.196-9.309-0.586-11.767c-0.392-2.459-1.035-4.371-1.932-5.737c-0.898-1.365-2.089-2.459-3.571-3.278
			c-1.483-0.82-4.021-1.736-7.61-2.752v-5.737h41.8l41.098,113.926l45.195-113.926h39.575V1709.832z"/>
	</g>
	<g>
		<path fill="#002664" d="M328.582,1925.938v14.347h-5.127c-0.829-3.004-1.882-5.395-3.159-7.173
			c-1.278-1.778-2.763-3.047-4.454-3.807c-1.692-0.76-3.729-1.14-6.111-1.14c-3.557,0-6.725,1.183-9.503,3.548
			c-2.78,2.365-4.964,5.922-6.552,10.669c-1.588,4.748-2.382,10.487-2.382,17.221c0,6.768,0.655,12.542,1.968,17.324
			c1.312,4.782,3.245,8.39,5.8,10.824c2.555,2.434,5.697,3.651,9.426,3.651c2.831,0,5.144-0.406,6.94-1.218
			c1.795-0.811,3.306-2.098,4.532-3.858c1.225-1.761,2.39-4.351,3.496-7.769h5.127v14.813c-3.246,0.863-6.569,1.511-9.97,1.942
			c-3.401,0.431-7.139,0.647-11.213,0.647c-8.771,0-15.4-2.97-19.888-8.908c-4.489-5.938-6.733-14.795-6.733-26.569
			c0-7.388,1.166-13.862,3.496-19.422c2.331-5.559,5.757-9.856,10.28-12.896c4.523-3.038,9.926-4.558,16.211-4.558
			c3.141,0,6.042,0.164,8.701,0.492C322.125,1924.428,325.163,1925.041,328.582,1925.938z"/>
		<path fill="#002664" d="M394.771,1982.183c0,2.003,0.052,3.505,0.155,4.506c0.104,1.002,0.276,1.805,0.518,2.409
			c0.241,0.604,0.535,1.096,0.881,1.476c0.345,0.38,0.836,0.725,1.476,1.036c0.638,0.311,1.631,0.639,2.978,0.983v2.538h-21.7
			v-2.538c1.898-0.482,3.228-1.018,3.988-1.605c0.759-0.587,1.286-1.483,1.58-2.692c0.293-1.209,0.44-3.245,0.44-6.112v-21.7H356.29
			v21.7c0,2.314,0.078,4.006,0.233,5.076s0.415,1.916,0.777,2.537c0.363,0.622,0.897,1.14,1.605,1.555
			c0.708,0.414,1.856,0.828,3.444,1.242v2.538h-21.804v-2.538c2.141-0.552,3.574-1.165,4.299-1.838
			c0.725-0.674,1.199-1.632,1.424-2.875c0.224-1.243,0.336-3.142,0.336-5.697v-44.799c0-2.383-0.086-4.117-0.259-5.205
			c-0.173-1.088-0.458-1.934-0.854-2.538c-0.397-0.604-0.924-1.087-1.58-1.45c-0.656-0.362-1.779-0.768-3.367-1.217v-2.538h21.804
			v2.538c-1.52,0.381-2.616,0.76-3.289,1.14c-0.673,0.38-1.209,0.854-1.606,1.424c-0.397,0.57-0.691,1.425-0.88,2.564
			c-0.19,1.139-0.285,2.899-0.285,5.282v18.334h28.796v-18.334c0-3.004-0.147-5.058-0.44-6.163c-0.293-1.104-0.786-1.95-1.476-2.538
			c-0.691-0.586-2.055-1.156-4.091-1.709v-2.538h21.7v2.538c-1.934,0.484-3.28,1.028-4.04,1.632
			c-0.76,0.604-1.278,1.511-1.554,2.719c-0.277,1.209-0.414,3.229-0.414,6.06V1982.183z"/>
		<path fill="#002664" d="M448.322,1995.131v-2.538c1.726-0.345,3.012-0.725,3.858-1.139c0.846-0.415,1.476-0.992,1.891-1.735
			c0.414-0.742,0.622-1.735,0.622-2.979c0-1.173-0.139-2.441-0.415-3.807c-0.277-1.363-0.673-2.891-1.191-4.583l-1.917-6.681
			h-24.135l-1.761,5.075c-0.898,2.556-1.485,4.488-1.761,5.801c-0.277,1.313-0.415,2.504-0.415,3.573
			c0,2.071,0.526,3.592,1.58,4.558c1.053,0.967,2.667,1.605,4.843,1.916v2.538h-22.115v-2.538c1.934-0.311,3.617-1.432,5.05-3.366
			c1.432-1.934,2.823-4.695,4.169-8.286l21.597-57.333h8.183l17.609,57.747c0.829,2.693,1.562,4.748,2.201,6.163
			c0.638,1.416,1.406,2.521,2.305,3.314c0.897,0.795,2.124,1.382,3.677,1.761v2.538H448.322z M428.435,1967.164h21.649l-9.84-33.405
			L428.435,1967.164z"/>
		<path fill="#002664" d="M495.193,1990.366h13.569c1.484,0,2.727-0.086,3.729-0.259c1.001-0.173,1.855-0.44,2.563-0.803
			c0.708-0.363,1.347-0.863,1.917-1.502c0.569-0.639,1.113-1.477,1.631-2.512c0.518-1.036,1.01-2.339,1.476-3.911
			c0.466-1.57,1.044-3.927,1.735-7.069h5.231l-1.036,20.82h-46.561v-2.538c2.141-0.552,3.574-1.165,4.299-1.838
			c0.725-0.674,1.199-1.632,1.424-2.875c0.224-1.243,0.336-3.142,0.336-5.697v-44.799c0-2.383-0.086-4.117-0.259-5.205
			c-0.173-1.088-0.458-1.934-0.854-2.538c-0.397-0.604-0.924-1.087-1.58-1.45c-0.656-0.362-1.779-0.768-3.367-1.217v-2.538h21.804
			v2.538c-1.52,0.414-2.599,0.786-3.237,1.113c-0.64,0.329-1.166,0.77-1.58,1.321c-0.415,0.553-0.725,1.398-0.933,2.537
			c-0.207,1.14-0.311,2.952-0.311,5.438V1990.366z"/>
		<path fill="#002664" d="M552.112,1990.366h13.569c1.484,0,2.727-0.086,3.729-0.259c1.001-0.173,1.855-0.44,2.563-0.803
			c0.708-0.363,1.347-0.863,1.917-1.502c0.569-0.639,1.113-1.477,1.631-2.512c0.518-1.036,1.01-2.339,1.476-3.911
			c0.466-1.57,1.044-3.927,1.735-7.069h5.231l-1.036,20.82h-46.561v-2.538c2.141-0.552,3.574-1.165,4.299-1.838
			c0.725-0.674,1.199-1.632,1.424-2.875c0.224-1.243,0.336-3.142,0.336-5.697v-44.799c0-2.383-0.086-4.117-0.259-5.205
			c-0.173-1.088-0.458-1.934-0.854-2.538c-0.397-0.604-0.924-1.087-1.58-1.45c-0.656-0.362-1.779-0.768-3.367-1.217v-2.538h21.804
			v2.538c-1.52,0.414-2.599,0.786-3.237,1.113c-0.64,0.329-1.166,0.77-1.58,1.321c-0.415,0.553-0.725,1.398-0.933,2.537
			c-0.207,1.14-0.311,2.952-0.311,5.438V1990.366z"/>
		<path fill="#002664" d="M641.71,1924.436v15.642h-5.076c-0.518-1.691-1.054-3.177-1.605-4.454
			c-0.553-1.277-1.123-2.348-1.709-3.211c-0.587-0.863-1.235-1.554-1.942-2.072c-0.708-0.518-1.545-0.871-2.512-1.062
			c-0.967-0.189-2.124-0.285-3.47-0.285H609.03v27.139h11.083c1.519,0,2.71-0.215,3.573-0.647c0.863-0.431,1.58-1.165,2.149-2.201
			c0.57-1.035,1.114-2.658,1.631-4.868h4.869v19.888h-4.869c-0.484-2.071-1.019-3.633-1.605-4.687
			c-0.587-1.053-1.287-1.804-2.098-2.253c-0.812-0.448-2.029-0.674-3.651-0.674H609.03v29.884h16.107
			c1.691,0,3.064-0.146,4.118-0.44c1.053-0.293,1.959-0.794,2.719-1.502c0.759-0.707,1.433-1.631,2.02-2.771
			c0.586-1.14,1.079-2.322,1.476-3.548c0.396-1.226,0.94-3.012,1.631-5.36h5.127l-0.984,18.179h-47.958v-2.538
			c2.141-0.552,3.574-1.165,4.299-1.838c0.725-0.674,1.199-1.632,1.424-2.875c0.224-1.243,0.336-3.142,0.336-5.697v-44.799
			c0-2.383-0.086-4.117-0.259-5.205c-0.173-1.088-0.458-1.934-0.854-2.538c-0.397-0.604-0.924-1.087-1.58-1.45
			c-0.656-0.362-1.779-0.768-3.367-1.217v-2.538H641.71z"/>
		<path fill="#002664" d="M695.884,1967.112c1.243,2.071,2.287,3.884,3.133,5.438c0.846,1.554,1.717,3.298,2.616,5.231h0.673
			c-0.173-2.106-0.328-6.293-0.466-12.56c-0.139-6.267-0.207-11.92-0.207-16.962v-10.876c0-2.383-0.07-4.125-0.208-5.23
			c-0.138-1.105-0.388-1.95-0.751-2.538c-0.362-0.587-0.863-1.062-1.502-1.425c-0.639-0.362-1.752-0.768-3.34-1.217v-2.538h18.645
			v2.538c-1.554,0.414-2.65,0.795-3.289,1.14c-0.639,0.346-1.157,0.795-1.554,1.347c-0.397,0.553-0.699,1.381-0.906,2.485
			c-0.207,1.105-0.311,2.919-0.311,5.438v58.058h-6.474l-28.848-48.373c-1.796-3.004-3.074-5.195-3.833-6.577
			c-0.76-1.381-1.468-2.745-2.124-4.092h-0.88c0.241,2.659,0.415,7.467,0.518,14.424c0.104,6.958,0.155,13.89,0.155,20.795v10.564
			c0,2.314,0.078,4.006,0.233,5.076s0.415,1.916,0.777,2.537c0.363,0.622,0.897,1.14,1.605,1.555
			c0.708,0.414,1.856,0.828,3.444,1.242v2.538h-18.904v-2.538c2.141-0.552,3.574-1.165,4.299-1.838
			c0.725-0.674,1.199-1.632,1.424-2.875c0.224-1.243,0.336-3.142,0.336-5.697v-44.799c0-2.383-0.086-4.117-0.259-5.205
			c-0.173-1.088-0.458-1.934-0.855-2.538c-0.397-0.604-0.924-1.087-1.58-1.45c-0.656-0.362-1.778-0.768-3.366-1.217v-2.538h16.21
			L695.884,1967.112z"/>
		<path fill="#002664" d="M776.056,1994.872l-4.04,1.088l-3.781-4.04c-2.245,1.381-4.592,2.4-7.043,3.056
			c-2.452,0.655-5.266,0.984-8.442,0.984c-8.736,0-15.313-2.995-19.732-8.986c-4.42-5.99-6.629-14.89-6.629-26.698
			c0-7.354,1.208-13.811,3.625-19.37c2.417-5.559,5.886-9.831,10.41-12.818c4.522-2.985,9.84-4.479,15.952-4.479
			c3.211,0,6.3,0.182,9.271,0.544c2.969,0.362,6.267,0.993,9.892,1.891v14.242h-5.127c-0.932-3.107-2.038-5.533-3.314-7.276
			c-1.278-1.743-2.806-2.986-4.583-3.729c-1.779-0.742-4.032-1.113-6.759-1.113c-3.764,0-7.062,1.209-9.892,3.625
			c-2.832,2.418-5.033,5.982-6.604,10.695c-1.571,4.713-2.356,10.401-2.356,17.065c0,6.768,0.665,12.551,1.994,17.35
			c1.329,4.8,3.306,8.416,5.93,10.851c2.624,2.434,5.853,3.651,9.685,3.651c4.074,0,7.095-0.889,9.063-2.668
			c1.968-1.777,2.952-4.514,2.952-8.209v-3.107c0-3.107-0.165-5.352-0.492-6.732c-0.329-1.381-0.906-2.451-1.735-3.211
			c-0.829-0.759-2.193-1.381-4.091-1.864v-2.538h20.923v2.538c-1.243,0.414-2.175,0.889-2.797,1.424
			c-0.621,0.536-1.096,1.2-1.424,1.994c-0.329,0.795-0.553,1.77-0.673,2.926c-0.122,1.157-0.182,2.806-0.182,4.946V1994.872z"/>
		<path fill="#002664" d="M839.708,1924.436v15.642h-5.076c-0.518-1.691-1.054-3.177-1.605-4.454
			c-0.553-1.277-1.123-2.348-1.709-3.211c-0.587-0.863-1.235-1.554-1.942-2.072c-0.708-0.518-1.545-0.871-2.512-1.062
			c-0.967-0.189-2.124-0.285-3.47-0.285h-16.366v27.139h11.083c1.519,0,2.71-0.215,3.573-0.647c0.863-0.431,1.58-1.165,2.149-2.201
			c0.57-1.035,1.114-2.658,1.631-4.868h4.869v19.888h-4.869c-0.484-2.071-1.019-3.633-1.605-4.687
			c-0.587-1.053-1.287-1.804-2.098-2.253c-0.812-0.448-2.029-0.674-3.651-0.674h-11.083v29.884h16.107
			c1.691,0,3.064-0.146,4.118-0.44c1.053-0.293,1.959-0.794,2.719-1.502c0.759-0.707,1.433-1.631,2.02-2.771
			c0.586-1.14,1.079-2.322,1.476-3.548c0.396-1.226,0.94-3.012,1.631-5.36h5.127l-0.984,18.179h-47.958v-2.538
			c2.141-0.552,3.574-1.165,4.299-1.838c0.725-0.674,1.199-1.632,1.424-2.875c0.224-1.243,0.336-3.142,0.336-5.697v-44.799
			c0-2.383-0.086-4.117-0.259-5.205c-0.173-1.088-0.458-1.934-0.854-2.538c-0.397-0.604-0.924-1.087-1.58-1.45
			c-0.656-0.362-1.779-0.768-3.367-1.217v-2.538H839.708z"/>
		<path fill="#002664" d="M923.35,1925.938v14.347h-5.127c-0.829-3.004-1.882-5.395-3.159-7.173
			c-1.278-1.778-2.763-3.047-4.454-3.807c-1.692-0.76-3.729-1.14-6.111-1.14c-3.557,0-6.725,1.183-9.503,3.548
			c-2.78,2.365-4.964,5.922-6.552,10.669c-1.588,4.748-2.382,10.487-2.382,17.221c0,6.768,0.655,12.542,1.968,17.324
			c1.312,4.782,3.245,8.39,5.8,10.824c2.555,2.434,5.697,3.651,9.426,3.651c2.831,0,5.144-0.406,6.94-1.218
			c1.795-0.811,3.306-2.098,4.532-3.858c1.225-1.761,2.39-4.351,3.496-7.769h5.127v14.813c-3.246,0.863-6.569,1.511-9.97,1.942
			c-3.401,0.431-7.139,0.647-11.213,0.647c-8.771,0-15.4-2.97-19.888-8.908c-4.489-5.938-6.733-14.795-6.733-26.569
			c0-7.388,1.166-13.862,3.496-19.422c2.331-5.559,5.757-9.856,10.28-12.896c4.523-3.038,9.926-4.558,16.211-4.558
			c3.141,0,6.042,0.164,8.701,0.492C916.893,1924.428,919.932,1925.041,923.35,1925.938z"/>
		<path fill="#002664" d="M962.297,1995.96c-4.144,0-7.916-0.683-11.316-2.046c-3.401-1.364-6.319-3.487-8.753-6.37
			s-4.316-6.569-5.645-11.058c-1.33-4.488-1.994-9.857-1.994-16.107c0-7.699,1.173-14.312,3.522-19.836
			c2.348-5.523,5.705-9.728,10.073-12.611c4.368-2.882,9.434-4.324,15.201-4.324c6.146,0,11.316,1.355,15.511,4.065
			c4.195,2.711,7.354,6.699,9.478,11.964c2.124,5.266,3.185,11.679,3.185,19.24c0,8.079-1.209,14.899-3.625,20.458
			c-2.417,5.559-5.826,9.72-10.229,12.481C973.303,1994.579,968.167,1995.96,962.297,1995.96z M945.258,1958.929
			c0,10.601,1.545,18.663,4.635,24.187c3.09,5.524,7.604,8.287,13.543,8.287c3.763,0,6.957-1.2,9.582-3.6
			c2.624-2.399,4.591-5.912,5.904-10.54c1.312-4.626,1.968-10.029,1.968-16.21c0-7.527-0.769-13.768-2.305-18.723
			c-1.537-4.954-3.634-8.554-6.292-10.799c-2.659-2.244-5.749-3.366-9.271-3.366c-3.108,0-5.775,0.725-8.002,2.175
			s-4.075,3.514-5.542,6.189c-1.468,2.676-2.538,5.913-3.211,9.711C945.595,1950.039,945.258,1954.268,945.258,1958.929z"/>
		<path fill="#002664" d="M1019.785,1964.419v17.608c0,2.486,0.094,4.291,0.285,5.412c0.189,1.123,0.475,1.969,0.854,2.538
			c0.381,0.569,0.898,1.036,1.555,1.398c0.654,0.362,1.777,0.769,3.367,1.217v2.538h-21.857v-2.538
			c2.141-0.552,3.574-1.165,4.299-1.838c0.725-0.674,1.199-1.632,1.424-2.875s0.338-3.142,0.338-5.697v-44.799
			c0-2.383-0.088-4.117-0.26-5.205s-0.457-1.934-0.854-2.538c-0.398-0.604-0.924-1.087-1.58-1.45
			c-0.656-0.362-1.779-0.768-3.367-1.217v-2.538h25.637c8.08,0,14.121,1.469,18.127,4.402c4.006,2.936,6.008,7.493,6.008,13.673
			c0,4.731-1.303,8.753-3.91,12.067c-2.607,3.315-6.518,5.904-11.73,7.769v0.415c2.105,0.863,3.91,2.098,5.412,3.703
			s3.168,4.1,4.998,7.483l4.66,8.494c1.348,2.485,2.504,4.385,3.471,5.696c0.967,1.313,1.951,2.314,2.953,3.004
			c1,0.691,2.33,1.175,3.986,1.45v2.538h-14.346c-1.313-1.83-2.555-3.798-3.729-5.904c-1.174-2.105-2.33-4.247-3.471-6.422
			l-4.557-8.649c-1.381-2.623-2.512-4.558-3.393-5.801c-0.881-1.242-1.691-2.114-2.434-2.615c-0.744-0.5-1.537-0.846-2.383-1.036
			c-0.848-0.188-2.115-0.284-3.807-0.284H1019.785z M1019.785,1929.201v30.764h5.852c3.004,0,5.439-0.216,7.303-0.647
			c1.865-0.432,3.592-1.251,5.18-2.46c1.588-1.208,2.857-2.892,3.807-5.05c0.949-2.157,1.424-4.808,1.424-7.95
			c0-3.279-0.561-6.008-1.684-8.183c-1.121-2.176-2.822-3.833-5.1-4.972c-2.279-1.14-5.354-1.71-9.221-1.71
			C1024.238,1928.993,1021.719,1929.063,1019.785,1929.201z"/>
		<path fill="#002664" d="M1085.611,1982.027c0,2.038,0.112,3.66,0.337,4.869s0.57,2.167,1.036,2.874
			c0.466,0.708,1.096,1.261,1.891,1.657c0.794,0.397,2.036,0.786,3.729,1.165v2.538h-22.736v-2.538
			c2.141-0.552,3.573-1.165,4.299-1.838c0.725-0.674,1.199-1.632,1.424-2.875s0.337-3.142,0.337-5.697v-44.799
			c0-2.383-0.087-4.117-0.259-5.205c-0.173-1.088-0.458-1.934-0.854-2.538c-0.397-0.604-0.924-1.087-1.58-1.45
			c-0.656-0.362-1.778-0.768-3.366-1.217v-2.538h25.688c8.079,0,14.096,1.546,18.049,4.636c3.953,3.091,5.931,7.795,5.931,14.113
			c0,3.591-0.622,6.819-1.864,9.685c-1.243,2.866-3.004,5.214-5.283,7.044c-2.278,1.83-4.972,3.143-8.079,3.936
			c-3.107,0.795-6.37,1.191-9.789,1.191c-3.832,0-6.802-0.068-8.908-0.207V1982.027z M1085.611,1960.534h6.008
			c3.901,0,7.122-0.509,9.659-1.527c2.538-1.019,4.48-2.71,5.827-5.076c1.347-2.364,2.02-5.497,2.02-9.399
			c0-2.97-0.397-5.446-1.191-7.433c-0.795-1.984-1.891-3.581-3.288-4.79c-1.398-1.209-3.065-2.063-4.998-2.564
			c-1.935-0.5-4.04-0.751-6.318-0.751c-3.419,0-5.991,0.07-7.718,0.208V1960.534z"/>
		<path fill="#002664" d="M1157.705,1995.96c-4.143,0-7.916-0.683-11.316-2.046c-3.401-1.364-6.318-3.487-8.752-6.37
			c-2.435-2.883-4.316-6.569-5.646-11.058c-1.33-4.488-1.994-9.857-1.994-16.107c0-7.699,1.174-14.312,3.521-19.836
			c2.348-5.523,5.705-9.728,10.073-12.611c4.368-2.882,9.435-4.324,15.201-4.324c6.146,0,11.316,1.355,15.512,4.065
			c4.194,2.711,7.354,6.699,9.478,11.964c2.123,5.266,3.186,11.679,3.186,19.24c0,8.079-1.209,14.899-3.626,20.458
			s-5.826,9.72-10.229,12.481C1168.711,1994.579,1163.575,1995.96,1157.705,1995.96z M1140.666,1958.929
			c0,10.601,1.545,18.663,4.636,24.187c3.089,5.524,7.604,8.287,13.543,8.287c3.763,0,6.957-1.2,9.581-3.6s4.592-5.912,5.904-10.54
			c1.312-4.626,1.969-10.029,1.969-16.21c0-7.527-0.77-13.768-2.306-18.723c-1.536-4.954-3.634-8.554-6.292-10.799
			c-2.659-2.244-5.749-3.366-9.271-3.366c-3.107,0-5.775,0.725-8.002,2.175s-4.074,3.514-5.542,6.189s-2.537,5.913-3.211,9.711
			C1141.003,1950.039,1140.666,1954.268,1140.666,1958.929z"/>
		<path fill="#002664" d="M1215.193,1964.419v17.608c0,2.486,0.094,4.291,0.284,5.412c0.189,1.123,0.475,1.969,0.854,2.538
			s0.897,1.036,1.554,1.398c0.655,0.362,1.778,0.769,3.367,1.217v2.538h-21.856v-2.538c2.141-0.552,3.573-1.165,4.299-1.838
			c0.725-0.674,1.199-1.632,1.424-2.875s0.337-3.142,0.337-5.697v-44.799c0-2.383-0.087-4.117-0.259-5.205
			c-0.173-1.088-0.458-1.934-0.854-2.538c-0.397-0.604-0.924-1.087-1.58-1.45c-0.656-0.362-1.778-0.768-3.366-1.217v-2.538h25.637
			c8.079,0,14.121,1.469,18.127,4.402c4.005,2.936,6.008,7.493,6.008,13.673c0,4.731-1.304,8.753-3.91,12.067
			c-2.607,3.315-6.518,5.904-11.73,7.769v0.415c2.105,0.863,3.91,2.098,5.412,3.703s3.167,4.1,4.997,7.483l4.661,8.494
			c1.347,2.485,2.504,4.385,3.471,5.696c0.966,1.313,1.95,2.314,2.952,3.004c1.001,0.691,2.33,1.175,3.987,1.45v2.538h-14.346
			c-1.313-1.83-2.556-3.798-3.729-5.904c-1.174-2.105-2.33-4.247-3.47-6.422l-4.558-8.649c-1.381-2.623-2.512-4.558-3.393-5.801
			c-0.88-1.242-1.691-2.114-2.434-2.615c-0.743-0.5-1.537-0.846-2.383-1.036c-0.847-0.188-2.115-0.284-3.807-0.284H1215.193z
			 M1215.193,1929.201v30.764h5.852c3.004,0,5.438-0.216,7.303-0.647s3.591-1.251,5.18-2.46c1.587-1.208,2.856-2.892,3.807-5.05
			c0.949-2.157,1.424-4.808,1.424-7.95c0-3.279-0.562-6.008-1.684-8.183c-1.122-2.176-2.822-3.833-5.101-4.972
			c-2.279-1.14-5.353-1.71-9.22-1.71C1219.646,1928.993,1217.126,1929.063,1215.193,1929.201z"/>
		<path fill="#002664" d="M1300.233,1995.131v-2.538c1.727-0.345,3.012-0.725,3.858-1.139c0.846-0.415,1.477-0.992,1.891-1.735
			c0.414-0.742,0.621-1.735,0.621-2.979c0-1.173-0.138-2.441-0.414-3.807c-0.276-1.363-0.673-2.891-1.191-4.583l-1.916-6.681
			h-24.135l-1.761,5.075c-0.898,2.556-1.485,4.488-1.761,5.801c-0.277,1.313-0.414,2.504-0.414,3.573
			c0,2.071,0.525,3.592,1.579,4.558c1.053,0.967,2.667,1.605,4.843,1.916v2.538h-22.115v-2.538c1.934-0.311,3.616-1.432,5.05-3.366
			c1.433-1.934,2.822-4.695,4.169-8.286l21.597-57.333h8.184l17.608,57.747c0.829,2.693,1.563,4.748,2.201,6.163
			c0.639,1.416,1.407,2.521,2.305,3.314c0.897,0.795,2.124,1.382,3.678,1.761v2.538H1300.233z M1280.346,1967.164h21.648
			l-9.84-33.405L1280.346,1967.164z"/>
		<path fill="#002664" d="M1322.297,1924.436h56.038v18.023h-5.075c-0.76-2.969-1.511-5.316-2.253-7.043
			c-0.743-1.727-1.528-3.038-2.356-3.937c-0.829-0.897-1.719-1.536-2.668-1.916s-2.374-0.57-4.272-0.57h-6.577v53.034
			c0,2.038,0.111,3.66,0.337,4.869c0.224,1.209,0.569,2.167,1.035,2.874c0.467,0.708,1.096,1.261,1.891,1.657
			c0.794,0.397,2.037,0.786,3.729,1.165v2.538h-23.668v-2.538c1.036-0.241,1.95-0.5,2.745-0.776c0.794-0.276,1.441-0.612,1.941-1.01
			c0.501-0.396,0.915-0.906,1.243-1.528c0.328-0.621,0.587-1.467,0.777-2.538c0.189-1.069,0.284-2.641,0.284-4.713v-53.034h-6.525
			c-1.623,0-2.961,0.156-4.014,0.467c-1.054,0.311-2.028,0.958-2.926,1.942c-0.898,0.983-1.719,2.382-2.46,4.194
			c-0.743,1.813-1.442,4.101-2.098,6.862h-5.128V1924.436z"/>
		<path fill="#002664" d="M1403.816,1982.183c0,2.314,0.077,4.006,0.232,5.076s0.414,1.916,0.777,2.537
			c0.362,0.622,0.897,1.14,1.605,1.555c0.707,0.414,1.855,0.828,3.444,1.242v2.538h-21.856v-2.538
			c2.141-0.552,3.573-1.165,4.299-1.838c0.725-0.674,1.199-1.632,1.424-2.875s0.337-3.142,0.337-5.697v-44.799
			c0-2.383-0.087-4.117-0.259-5.205c-0.173-1.088-0.458-1.934-0.854-2.538c-0.397-0.604-0.924-1.087-1.58-1.45
			c-0.656-0.362-1.778-0.768-3.366-1.217v-2.538h21.856v2.538c-1.521,0.381-2.616,0.76-3.289,1.14
			c-0.674,0.38-1.209,0.854-1.605,1.424c-0.397,0.57-0.691,1.425-0.881,2.564c-0.19,1.139-0.284,2.899-0.284,5.282V1982.183z"/>
		<path fill="#002664" d="M1450.014,1995.96c-4.143,0-7.916-0.683-11.316-2.046c-3.401-1.364-6.318-3.487-8.752-6.37
			c-2.435-2.883-4.316-6.569-5.646-11.058c-1.33-4.488-1.994-9.857-1.994-16.107c0-7.699,1.174-14.312,3.521-19.836
			c2.348-5.523,5.705-9.728,10.073-12.611c4.368-2.882,9.435-4.324,15.201-4.324c6.146,0,11.316,1.355,15.512,4.065
			c4.194,2.711,7.354,6.699,9.478,11.964c2.123,5.266,3.186,11.679,3.186,19.24c0,8.079-1.209,14.899-3.626,20.458
			s-5.826,9.72-10.229,12.481C1461.02,1994.579,1455.884,1995.96,1450.014,1995.96z M1432.975,1958.929
			c0,10.601,1.545,18.663,4.636,24.187c3.089,5.524,7.604,8.287,13.543,8.287c3.763,0,6.957-1.2,9.581-3.6s4.592-5.912,5.904-10.54
			c1.312-4.626,1.969-10.029,1.969-16.21c0-7.527-0.77-13.768-2.306-18.723c-1.536-4.954-3.634-8.554-6.292-10.799
			c-2.659-2.244-5.749-3.366-9.271-3.366c-3.107,0-5.775,0.725-8.002,2.175s-4.074,3.514-5.542,6.189s-2.537,5.913-3.211,9.711
			C1433.312,1950.039,1432.975,1954.268,1432.975,1958.929z"/>
		<path fill="#002664" d="M1533.294,1967.112c1.243,2.071,2.287,3.884,3.134,5.438c0.846,1.554,1.717,3.298,2.615,5.231h0.674
			c-0.174-2.106-0.329-6.293-0.467-12.56s-0.207-11.92-0.207-16.962v-10.876c0-2.383-0.069-4.125-0.207-5.23
			c-0.139-1.105-0.389-1.95-0.751-2.538c-0.362-0.587-0.863-1.062-1.502-1.425c-0.639-0.362-1.753-0.768-3.341-1.217v-2.538h18.646
			v2.538c-1.554,0.414-2.65,0.795-3.289,1.14c-0.64,0.346-1.157,0.795-1.554,1.347c-0.397,0.553-0.699,1.381-0.906,2.485
			c-0.207,1.105-0.311,2.919-0.311,5.438v58.058h-6.475l-28.848-48.373c-1.795-3.004-3.073-5.195-3.832-6.577
			c-0.76-1.381-1.468-2.745-2.123-4.092h-0.881c0.241,2.659,0.414,7.467,0.518,14.424c0.104,6.958,0.155,13.89,0.155,20.795v10.564
			c0,2.314,0.078,4.006,0.233,5.076s0.414,1.916,0.777,2.537c0.362,0.622,0.897,1.14,1.605,1.555
			c0.707,0.414,1.855,0.828,3.443,1.242v2.538h-18.903v-2.538c2.141-0.552,3.573-1.165,4.299-1.838
			c0.725-0.674,1.199-1.632,1.424-2.875s0.337-3.142,0.337-5.697v-44.799c0-2.383-0.087-4.117-0.259-5.205
			c-0.174-1.088-0.458-1.934-0.854-2.538c-0.397-0.604-0.925-1.087-1.58-1.45c-0.656-0.362-1.778-0.768-3.366-1.217v-2.538h16.211
			L1533.294,1967.112z"/>
	</g>
	<line fill="none" stroke="#BC0F3C" stroke-width="3" stroke-miterlimit="10" x1="272.833" y1="2040.834" x2="1552" y2="2040.834"/>
	<g>
		<path fill="#BC0F3C" d="M324.155,2088.157h7.362v46.227c0,9.27-2.273,15.919-6.817,19.948c-4.545,4.029-10.499,6.044-17.861,6.044
			c-8.191,0-14.257-2.074-18.197-6.225c-3.94-4.151-5.91-10.74-5.91-19.768v-46.227h8.865v46.23c0,5.5,0.639,9.374,1.918,11.623
			c1.278,2.249,3.214,3.908,5.807,4.981c2.592,1.072,5.305,1.607,8.14,1.607c5.46,0,9.608-1.436,12.442-4.307
			c2.833-2.87,4.251-7.506,4.251-13.905V2088.157z"/>
		<path fill="#BC0F3C" d="M400.263,2158.925h-8.606l-36.603-61.693l0.104,4.666c0.104,1.763,0.156,3.249,0.156,4.458v52.569h-7.155
			v-70.768h11.095l34.218,57.671l-0.104-4.923c-0.069-1.935-0.104-3.644-0.104-5.129v-47.619h6.999V2158.925z"/>
		<path fill="#BC0F3C" d="M426.808,2158.925h-8.866v-70.768h8.866V2158.925z"/>
		<path fill="#BC0F3C" d="M465.847,2158.925h-8.866v-62.991H436.71v-7.776h49.459v7.776h-20.323V2158.925z"/>
		<path fill="#BC0F3C" d="M541.799,2151.148v7.776H496.02v-70.768h44.794v7.776h-35.928v22.501H533.4v7.206h-28.515v25.508H541.799z
			"/>
		<path fill="#BC0F3C" d="M554.189,2158.925v-70.768h23.745c9.988,0,17.765,3.404,23.33,10.213
			c5.564,6.81,8.347,15.139,8.347,24.989c0,9.989-2.714,18.414-8.14,25.274c-5.427,6.861-12.305,10.291-20.634,10.291H554.189z
			 M563.055,2151.407h14.361c7.604,0,13.376-2.626,17.316-7.88c3.94-5.254,5.911-12.184,5.911-20.79
			c0-6.981-1.875-13.255-5.625-18.819c-3.75-5.564-9.617-8.348-17.601-8.348h-14.361V2151.407z"/>
		<path fill="#BC0F3C" d="M641.652,2140.209l7.984-1.814c3.214,9.643,10.179,14.465,20.894,14.465c5.599,0,9.815-1.188,12.65-3.563
			c2.833-2.376,4.251-5.559,4.251-9.547c0-3.017-1.08-5.444-3.239-7.283c-2.16-1.839-4.655-3.104-7.487-3.798l-14.16-3.491
			c-3.664-0.934-6.662-2.066-8.995-3.4c-2.333-1.332-4.312-3.384-5.937-6.152c-1.625-2.769-2.437-5.936-2.437-9.501
			c0-5.919,2.229-10.634,6.688-14.147c4.458-3.514,10.178-5.271,17.161-5.271c12.857,0,21.308,5.824,25.352,17.472l-8.036,2.385
			c-0.933-4.147-3.128-7.284-6.584-9.409c-3.457-2.126-7.137-3.188-11.042-3.188c-3.872,0-7.319,1.024-10.343,3.073
			c-3.025,2.049-4.536,4.947-4.536,8.698c0,5.244,3.832,8.785,11.497,10.626l13.232,3.103c12.097,2.904,18.146,9.42,18.146,19.549
			c0,6.119-2.273,11.21-6.818,15.271c-4.545,4.062-10.948,6.092-19.208,6.092C656.03,2160.376,646.352,2153.654,641.652,2140.209z"
			/>
		<path fill="#BC0F3C" d="M729.114,2158.925h-8.866v-62.991h-20.271v-7.776h49.459v7.776h-20.323V2158.925z"/>
		<path fill="#BC0F3C" d="M800.568,2158.925h-9.052l-7.117-20.686h-26.26l-6.332,20.686h-7.413l22.996-70.768h10.029
			L800.568,2158.925z M782.512,2131.603l-10.964-34.01l-10.946,34.01H782.512z"/>
		<path fill="#BC0F3C" d="M823.938,2158.925h-8.866v-62.991h-20.271v-7.776h49.459v7.776h-20.323V2158.925z"/>
		<path fill="#BC0F3C" d="M899.89,2151.148v7.776h-45.779v-70.768h44.794v7.776h-35.928v22.501h28.515v7.206h-28.515v25.508H899.89z
			"/>
		<path fill="#BC0F3C" d="M904.504,2140.209l7.984-1.814c3.214,9.643,10.179,14.465,20.894,14.465c5.599,0,9.815-1.188,12.65-3.563
			c2.833-2.376,4.251-5.559,4.251-9.547c0-3.017-1.08-5.444-3.239-7.283c-2.16-1.839-4.655-3.104-7.487-3.798l-14.16-3.491
			c-3.664-0.934-6.662-2.066-8.995-3.4c-2.333-1.332-4.312-3.384-5.937-6.152c-1.625-2.769-2.437-5.936-2.437-9.501
			c0-5.919,2.229-10.634,6.688-14.147c4.458-3.514,10.178-5.271,17.161-5.271c12.857,0,21.308,5.824,25.352,17.472l-8.036,2.385
			c-0.933-4.147-3.128-7.284-6.584-9.409c-3.457-2.126-7.137-3.188-11.042-3.188c-3.872,0-7.319,1.024-10.343,3.073
			c-3.025,2.049-4.536,4.947-4.536,8.698c0,5.244,3.832,8.785,11.497,10.626l13.232,3.103c12.097,2.904,18.146,9.42,18.146,19.549
			c0,6.119-2.273,11.21-6.818,15.271c-4.545,4.062-10.948,6.092-19.208,6.092C918.882,2160.376,909.204,2153.654,904.504,2140.209z"
			/>
		<path fill="#BC0F3C" d="M1023.695,2160.376c-9.092,0-16.176-3.535-21.256-10.609c-5.082-7.072-7.622-15.745-7.622-26.019
			c0-10.722,2.661-19.576,7.983-26.563s12.373-10.48,21.154-10.48c8.742,0,15.76,3.434,21.049,10.299
			c5.287,6.866,7.932,15.521,7.932,25.967c0,10.03-2.566,18.772-7.699,26.226C1040.104,2156.65,1032.924,2160.376,1023.695,2160.376
			z M1023.902,2153.17c6.186,0,11.025-2.819,14.516-8.458c3.492-5.638,5.236-12.902,5.236-21.794c0-9.133-1.805-16.241-5.416-21.327
			c-3.613-5.085-8.408-7.627-14.389-7.627c-6.049,0-10.852,2.75-14.412,8.25c-3.561,5.501-5.34,12.696-5.34,21.586
			c0,8.684,1.797,15.749,5.393,21.197C1013.084,2150.445,1017.889,2153.17,1023.902,2153.17z"/>
		<path fill="#BC0F3C" d="M1075.124,2158.925h-8.865v-70.768h43.343v7.776h-34.478v22.345h28.566v7.155h-28.566V2158.925z"/>
		<path fill="#BC0F3C" d="M1194.38,2158.925h-9.053l-7.116-20.686h-26.26l-6.332,20.686h-7.413l22.997-70.768h10.028
			L1194.38,2158.925z M1176.323,2131.603l-10.963-34.01l-10.947,34.01H1176.323z"/>
		<path fill="#BC0F3C" d="M1271.927,2158.925h-8.605v-61.799l-22.973,61.799h-6.014l-23.222-61.799v61.799h-7.518v-70.768h13.123
			l21.38,56.601l20.87-56.601h12.958V2158.925z"/>
		<path fill="#BC0F3C" d="M1335.385,2151.148v7.776h-45.779v-70.768h44.794v7.776h-35.929v22.501h28.515v7.206h-28.515v25.508
			H1335.385z"/>
		<path fill="#BC0F3C" d="M1398.688,2158.925h-9.292l-13.05-30.641h-20.275v30.641h-8.295v-70.768h27.893
			c7.569,0,13.177,2.065,16.823,6.195s5.47,8.649,5.47,13.558c0,3.768-1.02,7.379-3.059,10.835
			c-2.04,3.457-5.409,5.928-10.109,7.414L1398.688,2158.925z M1356.07,2121.078h18.509c4.874,0,8.511-1.287,10.913-3.862
			c2.402-2.574,3.604-5.729,3.604-9.462c0-3.732-1.271-6.636-3.811-8.71c-2.54-2.073-5.747-3.11-9.617-3.11h-19.598V2121.078z"/>
		<path fill="#BC0F3C" d="M1421.706,2158.925h-8.865v-70.768h8.865V2158.925z"/>
		<path fill="#BC0F3C" d="M1481.794,2135.128l8.088,1.814c-3.871,15.623-12.616,23.434-26.233,23.434
			c-8.952,0-15.978-3.613-21.075-10.843c-5.099-7.229-7.646-16.117-7.646-26.667c0-10.895,2.661-19.646,7.983-26.251
			c5.322-6.606,12.46-9.91,21.412-9.91c13.272,0,21.792,7.587,25.56,22.76l-8.348,1.659c-3.041-11.268-8.796-16.901-17.264-16.901
			c-6.256,0-11.104,2.618-14.543,7.854s-5.158,12.59-5.158,22.06c0,8.676,1.763,15.632,5.288,20.868s8.191,7.854,13.998,7.854
			C1472.877,2152.859,1478.855,2146.948,1481.794,2135.128z"/>
		<path fill="#BC0F3C" d="M1548.531,2158.925h-9.053l-7.116-20.686h-26.26l-6.332,20.686h-7.413l22.997-70.768h10.028
			L1548.531,2158.925z M1530.475,2131.603l-10.963-34.01l-10.947,34.01H1530.475z"/>
	</g>
	<g>
		<g>
			<path fill="#00AEEF" d="M117.615,526.757l4.512-1.025c1.816,5.449,5.752,8.174,11.807,8.174c3.164,0,5.547-0.671,7.148-2.014
				c1.601-1.342,2.402-3.141,2.402-5.395c0-1.705-0.61-3.077-1.83-4.116c-1.221-1.039-2.631-1.754-4.231-2.146l-8.001-1.972
				c-2.07-0.528-3.765-1.168-5.083-1.922c-1.318-0.753-2.437-1.912-3.354-3.477c-0.918-1.565-1.377-3.354-1.377-5.369
				c0-3.345,1.26-6.009,3.779-7.995s5.752-2.978,9.697-2.978c7.266,0,12.041,3.292,14.326,9.873l-4.541,1.348
				c-0.527-2.344-1.768-4.116-3.721-5.317c-1.953-1.201-4.033-1.802-6.24-1.802c-2.188,0-4.136,0.579-5.845,1.737
				c-1.709,1.158-2.563,2.796-2.563,4.916c0,2.963,2.166,4.964,6.497,6.004l7.478,1.753c6.836,1.641,10.254,5.323,10.254,11.046
				c0,3.458-1.285,6.334-3.853,8.63c-2.568,2.295-6.187,3.443-10.854,3.443C125.74,538.153,120.271,534.355,117.615,526.757z"/>
			<path fill="#00AEEF" d="M184.734,537.333h-5.01V518.29H161.18v19.043h-5.01v-39.99h5.01v16.553h18.545v-16.553h5.01V537.333z"/>
		</g>
		<g>
			<g>
				<line fill="none" stroke="#00AEEF" stroke-width="4" x1="40.893" y1="511.833" x2="98" y2="511.833"/>
				<g>
					<polygon fill="#00AEEF" points="54.146,528.193 56.875,525.263 42.428,511.837 56.875,498.408 54.146,495.478 36.555,511.837 
											"/>
				</g>
			</g>
		</g>
		<g>
			<g>
				<line fill="none" stroke="#00AEEF" stroke-width="4" x1="214.061" y1="511.833" x2="271.168" y2="511.833"/>
				<g>
					<polygon fill="#00AEEF" points="257.915,528.193 255.186,525.263 269.633,511.837 255.186,498.408 257.915,495.478 
						275.506,511.837 					"/>
				</g>
			</g>
		</g>
	</g>
	<g>
		<g>
			<path fill="#00AEEF" d="M1633.061,526.757l4.512-1.025c1.816,5.449,5.752,8.174,11.807,8.174c3.164,0,5.547-0.671,7.148-2.014
				c1.602-1.342,2.402-3.141,2.402-5.395c0-1.705-0.61-3.077-1.83-4.116c-1.221-1.039-2.631-1.754-4.23-2.146l-8.002-1.972
				c-2.07-0.528-3.765-1.168-5.083-1.922c-1.318-0.753-2.437-1.912-3.354-3.477c-0.918-1.565-1.377-3.354-1.377-5.369
				c0-3.345,1.26-6.009,3.779-7.995s5.752-2.978,9.697-2.978c7.266,0,12.041,3.292,14.326,9.873l-4.541,1.348
				c-0.527-2.344-1.768-4.116-3.721-5.317s-4.033-1.802-6.24-1.802c-2.188,0-4.136,0.579-5.845,1.737
				c-1.71,1.158-2.563,2.796-2.563,4.916c0,2.963,2.166,4.964,6.497,6.004l7.478,1.753c6.836,1.641,10.254,5.323,10.254,11.046
				c0,3.458-1.285,6.334-3.853,8.63c-2.568,2.295-6.187,3.443-10.854,3.443C1641.186,538.153,1635.717,534.355,1633.061,526.757z"/>
			<path fill="#00AEEF" d="M1700.18,537.333h-5.01V518.29h-18.545v19.043h-5.01v-39.99h5.01v16.553h18.545v-16.553h5.01V537.333z"/>
		</g>
		<g>
			<g>
				<line fill="none" stroke="#00AEEF" stroke-width="4" x1="1556.338" y1="511.833" x2="1613.445" y2="511.833"/>
				<g>
					<polygon fill="#00AEEF" points="1569.592,528.193 1572.32,525.263 1557.873,511.837 1572.32,498.408 1569.592,495.478 
						1552,511.837 					"/>
				</g>
			</g>
		</g>
		<g>
			<g>
				<line fill="none" stroke="#00AEEF" stroke-width="4" x1="1729.506" y1="511.833" x2="1786.613" y2="511.833"/>
				<g>
					<polygon fill="#00AEEF" points="1773.359,528.193 1770.631,525.263 1785.078,511.837 1770.631,498.408 1773.359,495.478 
						1790.951,511.837 					"/>
				</g>
			</g>
		</g>
	</g>
	<g>
		<g>
			<path fill="#00AEEF" d="M1841.289,768.923l4.512-1.025c1.816,5.449,5.752,8.174,11.807,8.174c3.164,0,5.547-0.671,7.148-2.014
				c1.602-1.342,2.402-3.141,2.402-5.395c0-1.705-0.61-3.077-1.83-4.116c-1.221-1.039-2.631-1.754-4.23-2.146l-8.002-1.972
				c-2.07-0.528-3.765-1.168-5.083-1.922c-1.318-0.753-2.437-1.912-3.354-3.477c-0.918-1.565-1.377-3.354-1.377-5.369
				c0-3.345,1.26-6.009,3.779-7.995s5.752-2.978,9.697-2.978c7.266,0,12.041,3.292,14.326,9.873l-4.541,1.348
				c-0.527-2.344-1.768-4.116-3.721-5.317s-4.033-1.802-6.24-1.802c-2.188,0-4.136,0.579-5.845,1.737
				c-1.71,1.158-2.563,2.796-2.563,4.916c0,2.963,2.166,4.964,6.497,6.004l7.478,1.753c6.836,1.641,10.254,5.323,10.254,11.046
				c0,3.458-1.285,6.334-3.853,8.63c-2.568,2.295-6.187,3.443-10.854,3.443C1849.414,780.32,1843.945,776.521,1841.289,768.923z"/>
			<path fill="#00AEEF" d="M1908.408,779.5h-5.01v-19.043h-18.545V779.5h-5.01v-39.99h5.01v16.553h18.545v-16.553h5.01V779.5z"/>
		</g>
		<g>
			<g>
				<line fill="none" stroke="#00AEEF" stroke-width="4" x1="1879.704" y1="638.862" x2="1879.704" y2="695.97"/>
				<g>
					<polygon fill="#00AEEF" points="1863.345,652.116 1866.274,654.845 1879.7,640.397 1893.13,654.845 1896.06,652.116 
						1879.7,634.524 					"/>
				</g>
			</g>
		</g>
		<g>
			<g>
				<line fill="none" stroke="#00AEEF" stroke-width="4" x1="1879.704" y1="812.03" x2="1879.704" y2="869.138"/>
				<g>
					<polygon fill="#00AEEF" points="1863.345,855.884 1866.274,853.155 1879.7,867.603 1893.13,853.155 1896.06,855.884 
						1879.7,873.476 					"/>
				</g>
			</g>
		</g>
	</g>
	<g>
		<g>
			<path fill="#00AEEF" d="M1841.289,2307.09l4.512-1.025c1.816,5.449,5.752,8.174,11.807,8.174c3.164,0,5.547-0.67,7.148-2.014
				c1.602-1.342,2.402-3.141,2.402-5.395c0-1.705-0.61-3.076-1.83-4.115c-1.221-1.039-2.631-1.754-4.23-2.146l-8.002-1.973
				c-2.07-0.527-3.765-1.168-5.083-1.922c-1.318-0.752-2.437-1.912-3.354-3.477s-1.377-3.354-1.377-5.369
				c0-3.344,1.26-6.009,3.779-7.994s5.752-2.979,9.697-2.979c7.266,0,12.041,3.292,14.326,9.873l-4.541,1.348
				c-0.527-2.344-1.768-4.115-3.721-5.316s-4.033-1.803-6.24-1.803c-2.188,0-4.136,0.58-5.845,1.737
				c-1.71,1.157-2.563,2.796-2.563,4.915c0,2.963,2.166,4.965,6.497,6.005l7.478,1.753c6.836,1.641,10.254,5.324,10.254,11.047
				c0,3.458-1.285,6.334-3.853,8.63c-2.568,2.296-6.187,3.442-10.854,3.442C1849.414,2318.486,1843.945,2314.688,1841.289,2307.09z"
				/>
			<path fill="#00AEEF" d="M1908.408,2317.666h-5.01v-19.043h-18.545v19.043h-5.01v-39.99h5.01v16.553h18.545v-16.553h5.01V2317.666
				z"/>
		</g>
		<g>
			<g>
				<line fill="none" stroke="#00AEEF" stroke-width="4" x1="1879.704" y1="2177.029" x2="1879.704" y2="2234.137"/>
				<g>
					<polygon fill="#00AEEF" points="1863.345,2190.283 1866.274,2193.012 1879.7,2178.564 1893.13,2193.012 1896.06,2190.283 
						1879.7,2172.691 					"/>
				</g>
			</g>
		</g>
		<g>
			<g>
				<line fill="none" stroke="#00AEEF" stroke-width="4" x1="1879.704" y1="2350.197" x2="1879.704" y2="2407.305"/>
				<g>
					<polygon fill="#00AEEF" points="1863.345,2394.051 1866.274,2391.322 1879.7,2405.77 1893.13,2391.322 1896.06,2394.051 
						1879.7,2411.643 					"/>
				</g>
			</g>
		</g>
	</g>
	<g>
		<g>
			<path fill="#FF48B8" d="M1889.248,1410.5h-5.01v-19.043h-18.545v19.043h-5.01v-39.99h5.01v16.553h18.545v-16.553h5.01V1410.5z"/>
		</g>
		<g>
			<g>
				<line fill="none" stroke="#FF48B8" stroke-width="4" x1="1879.704" y1="1178.631" x2="1879.704" y2="1349.947"/>
				<g>
					<polygon fill="#FF48B8" points="1863.345,1191.885 1866.274,1194.613 1879.7,1180.166 1893.13,1194.613 1896.06,1191.885 
						1879.7,1174.293 					"/>
				</g>
			</g>
		</g>
		<g>
			<g>
				<line fill="none" stroke="#FF48B8" stroke-width="4" x1="1879.704" y1="1443.569" x2="1879.704" y2="1621.107"/>
				<g>
					<polygon fill="#FF48B8" points="1863.345,1607.854 1866.274,1605.125 1879.7,1619.572 1893.13,1605.125 1896.06,1607.854 
						1879.7,1625.445 					"/>
				</g>
			</g>
		</g>
	</g>
</g>
</svg>
