<?xml version="1.0" encoding="utf-8"?>
<!-- Generator: Adobe Illustrator 16.0.0, SVG Export Plug-In . SVG Version: 6.00 Build 0)  -->
<!DOCTYPE svg PUBLIC "-//W3C//DTD SVG 1.1//EN" "http://www.w3.org/Graphics/SVG/1.1/DTD/svg11.dtd">
<svg version="1.1" id="Layer_1" xmlns="http://www.w3.org/2000/svg" xmlns:xlink="http://www.w3.org/1999/xlink" x="0px" y="0px"
	 width="239.76px" height="124.333px" viewBox="0 0 239.76 124.333" enable-background="new 0 0 239.76 124.333"
	 xml:space="preserve">
<rect x="-10.8" y="103.445" opacity="0.48" fill="#38404F" width="261.361" height="49.234"/>
<g>
	<defs>
		<rect id="SVGID_1_" x="-10.8" y="103.445" width="261.361" height="49.234"/>
	</defs>
	<clipPath id="SVGID_2_">
		<use xlink:href="#SVGID_1_"  overflow="visible"/>
	</clipPath>
	<g clip-path="url(#SVGID_2_)">
		<polyline opacity="0.9167" fill="none" stroke="#000000" stroke-width="0.9097" stroke-miterlimit="10" points="232.338,101.688 
			272.891,125.103 232.338,148.517 		"/>
		<polyline opacity="0.9" fill="none" stroke="#000000" stroke-width="1.0417" stroke-miterlimit="10" points="221.834,101.688 
			262.389,125.103 221.834,148.517 		"/>
		<polyline opacity="0.8833" fill="none" stroke="#000000" stroke-width="1.1736" stroke-miterlimit="10" points="211.332,101.688 
			251.886,125.103 211.332,148.517 		"/>
		<polyline opacity="0.8667" fill="none" stroke="#000000" stroke-width="1.3055" stroke-miterlimit="10" points="200.83,101.689 
			241.383,125.104 200.83,148.518 		"/>
		<polyline opacity="0.85" fill="none" stroke="#000000" stroke-width="1.4375" stroke-miterlimit="10" points="190.327,101.688 
			230.881,125.103 190.327,148.517 		"/>
		<polyline opacity="0.8333" fill="none" stroke="#000000" stroke-width="1.5694" stroke-miterlimit="10" points="179.824,101.688 
			220.378,125.103 179.824,148.517 		"/>
		<polyline opacity="0.8167" fill="none" stroke="#000000" stroke-width="1.7014" stroke-miterlimit="10" points="169.321,101.688 
			209.875,125.103 169.321,148.517 		"/>
		<polyline opacity="0.8" fill="none" stroke="#000000" stroke-width="1.8333" stroke-miterlimit="10" points="158.818,101.688 
			199.372,125.103 158.818,148.517 		"/>
		<polyline opacity="0.7833" fill="none" stroke="#000000" stroke-width="1.9653" stroke-miterlimit="10" points="148.315,101.688 
			188.87,125.103 148.315,148.517 		"/>
		<polyline opacity="0.7667" fill="none" stroke="#000000" stroke-width="2.0972" stroke-miterlimit="10" points="137.813,101.688 
			178.367,125.103 137.813,148.517 		"/>
		<polyline opacity="0.75" fill="none" stroke="#000000" stroke-width="2.2292" stroke-miterlimit="10" points="127.311,101.688 
			167.864,125.103 127.311,148.517 		"/>
		<polyline opacity="0.7333" fill="none" stroke="#000000" stroke-width="2.3611" stroke-miterlimit="10" points="116.808,101.688 
			157.361,125.103 116.808,148.517 		"/>
		<polyline opacity="0.7167" fill="none" stroke="#000000" stroke-width="2.493" stroke-miterlimit="10" points="106.305,101.688 
			146.858,125.103 106.305,148.517 		"/>
		<polyline opacity="0.7" fill="none" stroke="#000000" stroke-width="2.625" stroke-miterlimit="10" points="95.803,101.688 
			136.356,125.103 95.803,148.517 		"/>
		<polyline opacity="0.6833" fill="none" stroke="#000000" stroke-width="2.7569" stroke-miterlimit="10" points="85.3,101.688 
			125.854,125.103 85.3,148.517 		"/>
		<polyline opacity="0.6667" fill="none" stroke="#000000" stroke-width="2.8889" stroke-miterlimit="10" points="74.797,101.688 
			115.351,125.103 74.797,148.517 		"/>
		<polyline opacity="0.65" fill="none" stroke="#000000" stroke-width="3.0208" stroke-miterlimit="10" points="64.294,101.688 
			104.848,125.103 64.294,148.517 		"/>
		<polyline opacity="0.6333" fill="none" stroke="#000000" stroke-width="3.1528" stroke-miterlimit="10" points="53.792,101.688 
			94.346,125.103 53.792,148.517 		"/>
		<polyline opacity="0.6167" fill="none" stroke="#000000" stroke-width="3.2847" stroke-miterlimit="10" points="43.289,101.688 
			83.843,125.103 43.289,148.517 		"/>
		<polyline opacity="0.6" fill="none" stroke="#000000" stroke-width="3.4167" stroke-miterlimit="10" points="32.786,101.688 
			73.34,125.103 32.786,148.517 		"/>
		<polyline opacity="0.5833" fill="none" stroke="#000000" stroke-width="3.5486" stroke-miterlimit="10" points="22.284,101.688 
			62.838,125.103 22.284,148.517 		"/>
		<polyline opacity="0.5667" fill="none" stroke="#000000" stroke-width="3.6805" stroke-miterlimit="10" points="11.781,101.688 
			52.335,125.103 11.781,148.517 		"/>
		<polyline opacity="0.55" fill="none" stroke="#000000" stroke-width="3.8125" stroke-miterlimit="10" points="1.278,101.688 
			41.832,125.103 1.278,148.517 		"/>
		<polyline opacity="0.5333" fill="none" stroke="#000000" stroke-width="3.9444" stroke-miterlimit="10" points="-9.224,101.688 
			31.33,125.103 -9.224,148.517 		"/>
		<polyline opacity="0.5167" fill="none" stroke="#000000" stroke-width="4.0764" stroke-miterlimit="10" points="-19.727,101.688 
			20.827,125.103 -19.727,148.517 		"/>
		<polyline opacity="0.5" fill="none" stroke="#000000" stroke-width="4.2083" stroke-miterlimit="10" points="-30.229,101.688 
			10.324,125.103 -30.229,148.517 		"/>
		<polyline opacity="0.4833" fill="none" stroke="#000000" stroke-width="4.3403" stroke-miterlimit="10" points="-40.732,101.688 
			-0.178,125.103 -40.732,148.517 		"/>
	</g>
</g>
<g>
	<g>
		<path fill="#F8FCFD" d="M98.656,120.178"/>
		<path fill="#F8FCFD" d="M100.341,119.688c0.187,1.419,1.313,2.056,2.422,2.056c1.354,0,2.293-1.005,2.271-2.206
			c-0.044-1.331-0.917-1.878-2.948-2.467c-1.682-0.502-2.991-1.18-3.035-3.036c0-2.118,1.682-3.362,3.669-3.362
			c1.428,0,3.005,0.682,3.459,2.434l-1.504,0.437c-0.163-0.991-0.933-1.538-1.977-1.538c-1.289,0-2.075,0.874-2.031,1.899
			c0.044,1.114,0.896,1.572,2.314,1.987c1.681,0.46,3.56,0.938,3.646,3.45c0.087,2.161-1.659,3.733-3.887,3.733
			c-1.702,0-3.561-0.963-3.946-2.938L100.341,119.688z"/>
		<path fill="#F8FCFD" d="M106.174,113.103c-0.028,0.305-0.266,0.573-0.607,0.673c-0.343,0.099-0.7,0.001-0.894-0.238
			L106.174,113.103z"/>
		<path fill="#F8FCFD" d="M98.795,120.137c0.028-0.303,0.265-0.578,0.607-0.677c0.341-0.1,0.747-0.01,0.938,0.229L98.795,120.137z"
			/>
	</g>
	<g>
		
			<text transform="matrix(1 0 0 1 107.3838 123.0342)" fill="#F8FCFD" stroke="#FFFFFF" stroke-width="0.06" stroke-miterlimit="10" font-family="'Giro-Light'" font-size="28.2885">ail</text>
	</g>
</g>
<g>
	<polygon fill="#414042" points="117.56,16.644 118.727,16.736 113.93,70.294 	"/>
	<path fill="#414042" d="M118.703,28.226c0,0,19.664,1.624,19.091,22.135c-0.541,19.321-27.145,23.098-28.4,22.902
		c-1.256-0.196,5.1-0.186,11.096-4.312c0,0-4.422,1.511-5.491,1.426c0,0,11.827-2.856,12.555-17.185
		c0.632-12.464-10.39-16.58-10.39-16.58s8.839-0.479,12.681,14.101c0,0,1.561,6.284-3.845,14.074c0,0,7.192-6.916,7.671-14.238
		C133.671,50.55,136.248,35.179,118.703,28.226z"/>
	<path fill="#414042" d="M116.223,22.456c0,0-0.564,15.896-13.678,37.163c0,0,5.745,2.798,9.5,11.015c0,0-4.734-8.196-13.57-10.259
		C98.475,60.375,110.932,47.467,116.223,22.456z"/>
	<path fill="#414042" d="M106.864,74.335c0,0,14.209-0.351,20.548-3.862c0,0-0.014,2.64-3.15,5.229c0,0-7.42-2.637-16.988-0.357
		L106.864,74.335z"/>
	<path fill="#414042" d="M104.886,36.411c0,0-1.78,11.194-12.901,25.098c0,0,3.821,2.478,5.764,8.616c0,0-2.637-6.209-8.707-8.436
		C89.042,61.69,98.974,53.642,104.886,36.411z"/>
	<path fill="#414042" d="M93.698,71.621c0,0,7.896-0.194,11.42-2.147c0,0-0.007,1.468-1.75,2.907c0,0-4.125-1.466-9.443-0.199
		L93.698,71.621z"/>
	<path fill="#414042" d="M140.012,39.704c0,0,14.633,2.086,13.295,17.397c-1.261,14.425-21.321,16.069-22.253,15.866
		c-0.93-0.203,3.822,0.087,8.49-2.732c0,0-3.374,0.935-4.17,0.825c0,0,8.971-1.612,10.15-12.295
		c1.024-9.292-7.035-12.858-7.035-12.858s6.632,0.034,8.857,11.106c0,0,0.889,4.768-3.499,10.354c0,0,5.686-4.853,6.367-10.307
		C150.215,57.06,152.822,45.68,140.012,39.704z"/>
	<path fill="#414042" d="M129.675,73.396c0,0,10.468,0.361,15.286-1.947c0,0-0.124,1.941-2.545,3.71c0,0-5.345-2.264-12.484-1.004
		L129.675,73.396z"/>
	<path fill="#414042" d="M88.564,75.731c0,0,3.424-0.024,8.749-0.583c0,0,5.85-1.007,8.796,1.326c0,0,9.781-2.506,19.486,2.168
		c0,0,1.143,1.655,3.333,1.144c0,0,12.411-3.622,14.696-1.584c0,0-0.376-2.67-13.744,0.679c0,0-2.859,0.362-3.023-1.313
		c0,0-6.588-3.94-20.103-1.85c0,0-0.963,0.121-1.644-0.544c0,0-3.301-1.774-8.456-0.665C96.655,74.51,91.073,75.538,88.564,75.731z"
		/>
	<path fill="#414042" d="M125.604,75.416c0,0,1.733-1.525,3.914-0.033c0,0,9.91-1.649,15.442,2.004c0,0-2.895-4.245-15.399-2.538
		C129.562,74.849,127.168,73.583,125.604,75.416z"/>
	<path fill="#414042" d="M106.107,75.253c0,0-2.781-3.348-12.601-1.186c0,0-0.431-1.599-4.991-0.197c0,0-1.388,0.233-2.284-0.18
		c0,0,1.693,0.23,4.125-0.85c0,0,1.307-0.88,3.248-0.022C93.604,72.819,103.411,70.982,106.107,75.253z"/>
</g>
<g>
	<g>
		<path fill="#27282D" d="M156.353,49.129c-0.161-1.112-0.363-2.199-0.618-3.271c-0.219-0.903-0.456-1.793-0.736-2.671
			l14.872,14.972v2.046v2.542L156.353,49.129z M156.445,59.936c0.145-1.125,0.237-2.267,0.288-3.426
			c0.017-0.516,0.024-1.032,0.024-1.557c0-0.135,0-0.279,0-0.423l13.112,13.213v2.426v3.284L156.445,59.936z M153.917,69.206
			c0.168-0.376,0.321-0.758,0.473-1.143c0.534-1.353,0.976-2.757,1.328-4.195l14.152,14.256v4.022v3.132L153.917,69.206z
			 M149.164,76.949c0.64-0.774,1.231-1.568,1.783-2.385c0.652-0.952,1.254-1.924,1.785-2.932L169.87,88.89v3.628v5.239
			c0,0.017,0,0.034,0,0.056L149.164,76.949z M85.902,90.183l-5.252,5.21V75.805h19.733l-5.287,5.243l0.449,0.396
			c6.826,5.99,15.072,8.891,24.352,8.891c10.141,0,18.802-3.215,25.974-9.896c0.78-0.723,1.517-1.472,2.217-2.237l21.569,21.734
			c-0.65,3-2.807,4.499-6.462,4.499c-4.702,0-6.927-2.224-6.682-6.678l0.244-9.651c-9.887,10.143-22.263,15.34-36.861,15.34
			c-12.882,0-24.065-4.287-33.326-12.649L85.902,90.183z M156.48,20.136l5.132-5.122V34.75h-19.783l5.337-5.322l-0.339-0.388
			c-0.312-0.352-0.624-0.702-0.956-1.049c-7.172-7.67-15.833-11.381-25.974-11.381c-10.142,0-18.803,3.711-25.968,10.886
			c-1.066,1.06-2.046,2.148-2.952,3.271l-9.414-9.476c0.93-1.087,1.92-2.158,2.969-3.194C94.166,8.448,106.05,3.5,119.897,3.5
			c13.861,0,25.731,5.197,35.381,15.337c0.304,0.324,0.602,0.647,0.896,0.971L156.48,20.136z M89.953,32.087
			c-0.626,0.846-1.209,1.716-1.751,2.595c-0.592,0.956-1.125,1.933-1.616,2.928l-9.735-9.808c0.524-0.867,1.083-1.723,1.666-2.565
			c0.634-0.902,1.302-1.794,1.997-2.665L89.953,32.087z M85.496,40.116c-0.169,0.401-0.321,0.809-0.465,1.223
			c-0.482,1.385-0.88,2.811-1.192,4.269l-10.54-10.625c0.541-1.388,1.159-2.753,1.835-4.088c0.135-0.267,0.271-0.533,0.406-0.799
			L85.496,40.116z M83.221,49.658c-0.127,1.248-0.187,2.521-0.187,3.814c0,0.584,0.018,1.168,0.034,1.743l-12.129-12.22
			c0.127-0.662,0.279-1.322,0.44-1.971c0.212-0.869,0.456-1.729,0.71-2.581L83.221,49.658z M83.693,60.84
			c0.145,0.808,0.322,1.607,0.525,2.403c0.338,1.362,0.761,2.689,1.261,3.987L69.958,51.586c0.025-0.812,0.067-1.615,0.127-2.418
			c0.059-0.622,0.118-1.244,0.187-1.853L83.693,60.84z"/>
	</g>
	<g>
		<g>
			<g>
				<path fill="#F8FCFD" d="M47.848,101.99c0,0.967-0.512,1.479-1.479,1.479c-3.358,0-6.147-1.309-8.367-3.984
					c-2.106-2.561-3.13-5.521-3.13-8.936V68.751c0-1.024,0.512-1.537,1.48-1.537c1.024,0,1.537,0.512,1.537,1.537v9.733h8.594
					c0.967,0,1.48,0.512,1.48,1.479c0,1.024-0.513,1.536-1.48,1.536h-8.594v9.05c0,2.562,0.74,4.838,2.276,6.773
					c1.651,2.105,3.7,3.13,6.204,3.13C47.335,100.453,47.848,100.966,47.848,101.99z"/>
				<path fill="#F8FCFD" d="M57.805,83.72c2.22-2.22,4.952-3.357,8.196-3.357c0.967,0,1.479,0.512,1.479,1.536
					c0,0.968-0.512,1.48-1.479,1.48c-2.333,0-4.383,0.854-6.033,2.504s-2.447,3.643-2.447,5.977v10.131
					c0,0.967-0.512,1.479-1.537,1.479c-0.968,0-1.48-0.513-1.48-1.479V91.859C54.504,88.615,55.585,85.939,57.805,83.72z"/>
				<path fill="#F8FCFD" d="M73.683,83.834c2.22-2.22,4.952-3.358,8.139-3.358c3.187,0,5.919,1.139,8.139,3.358
					s3.358,4.951,3.358,8.139c0,3.244-1.138,5.977-3.358,8.196s-4.895,3.301-8.139,3.301c-3.188,0-5.919-1.139-8.139-3.358
					s-3.358-4.951-3.358-8.139S71.463,86.054,73.683,83.834z M75.789,98.006c1.65,1.65,3.7,2.447,6.033,2.447
					s4.326-0.797,5.976-2.447s2.504-3.699,2.504-6.033c0-2.333-0.854-4.325-2.504-5.976c-1.65-1.651-3.643-2.505-5.976-2.505
					s-4.383,0.854-6.033,2.505c-1.65,1.65-2.447,3.643-2.447,5.976C73.341,94.307,74.138,96.355,75.789,98.006z"/>
				<path fill="#F8FCFD" d="M102.877,81.956v10.358c0,2.333,0.797,4.325,2.447,5.919c1.65,1.537,3.7,2.334,6.033,2.334
					c4.325,0,7.854-3.131,8.366-7.399V82.013c0-1.024,0.513-1.537,1.537-1.537c0.968,0,1.479,0.513,1.479,1.537v11.27
					c0,2.788-1.195,5.179-3.585,7.228c-2.391,2.049-5.009,3.074-7.797,3.074c-3.188,0-5.919-1.082-8.139-3.244
					c-2.22-2.163-3.358-4.838-3.358-7.969V81.956c0-0.968,0.512-1.48,1.48-1.48C102.365,80.476,102.877,80.988,102.877,81.956z"/>
				<path fill="#F8FCFD" d="M142.259,101.99c0,0.967-0.512,1.479-1.479,1.479c-3.358,0-6.146-1.309-8.366-3.984
					c-2.106-2.561-3.131-5.521-3.131-8.936V68.751c0-1.024,0.513-1.537,1.479-1.537c1.024,0,1.537,0.512,1.537,1.537v9.733h8.594
					c0.968,0,1.48,0.512,1.48,1.479c0,1.024-0.513,1.536-1.48,1.536h-8.594v9.05c0,2.562,0.74,4.838,2.276,6.773
					c1.65,2.105,3.7,3.13,6.204,3.13C141.747,100.453,142.259,100.966,142.259,101.99z"/>
				<path fill="#F8FCFD" d="M194.898,83.72c2.22-2.22,4.952-3.357,8.196-3.357c0.968,0,1.479,0.512,1.479,1.536
					c0,0.968-0.512,1.48-1.479,1.48c-2.334,0-4.383,0.854-6.033,2.504s-2.447,3.643-2.447,5.977v10.131
					c0,0.967-0.513,1.479-1.537,1.479c-0.967,0-1.479-0.513-1.479-1.479V91.859C191.598,88.615,192.679,85.939,194.898,83.72z"/>
				<path fill="#F8FCFD" d="M222.671,101.99c0,0.967-0.512,1.479-1.479,1.479c-3.358,0-6.146-1.309-8.366-3.984
					c-2.106-2.561-3.131-5.521-3.131-8.936V68.751c0-1.024,0.513-1.537,1.479-1.537c1.024,0,1.537,0.512,1.537,1.537v9.733h8.594
					c0.968,0,1.48,0.512,1.48,1.479c0,1.024-0.513,1.536-1.48,1.536h-8.594v9.05c0,2.562,0.74,4.838,2.276,6.773
					c1.65,2.105,3.7,3.13,6.204,3.13C222.159,100.453,222.671,100.966,222.671,101.99z"/>
			</g>
			<g>
				<path fill="#F8FCFD" d="M13.278,97.62"/>
				<path fill="#F8FCFD" d="M16.668,96.635c0.374,2.854,2.643,4.135,4.872,4.135c2.726,0,4.613-2.021,4.57-4.437
					c-0.088-2.681-1.844-3.778-5.931-4.965c-3.383-1.01-6.018-2.372-6.106-6.104c0-4.262,3.383-6.768,7.38-6.768
					c2.873,0,6.047,1.37,6.958,4.895l-3.024,0.881c-0.326-1.992-1.876-3.095-3.978-3.095c-2.59,0-4.171,1.757-4.084,3.823
					c0.089,2.238,1.801,3.163,4.657,3.996c3.383,0.923,7.16,1.889,7.337,6.94c0.174,4.35-3.339,7.513-7.819,7.513
					c-3.424,0-7.164-1.938-7.939-5.91L16.668,96.635z"/>
				<path fill="#F8FCFD" d="M28.399,83.385c-0.056,0.612-0.53,1.155-1.219,1.354c-0.688,0.198-1.409,0.002-1.795-0.479
					L28.399,83.385z"/>
				<path fill="#F8FCFD" d="M13.558,97.539c0.057-0.611,0.532-1.166,1.22-1.365c0.688-0.198,1.503-0.021,1.89,0.461L13.558,97.539z"
					/>
			</g>
			<g>
				<path fill="#F8FCFD" d="M182.365,91.067c-0.037-0.249-0.082-0.492-0.14-0.732c-0.049-0.203-0.102-0.402-0.164-0.599l3.329,3.352
					v0.459v0.569L182.365,91.067z M182.386,93.485c0.031-0.25,0.053-0.507,0.064-0.766c0.003-0.115,0.005-0.231,0.005-0.349
					c0-0.03,0-0.063,0-0.094l2.936,2.957v0.544v0.733L182.386,93.485z M181.818,95.561c0.038-0.083,0.072-0.169,0.106-0.255
					c0.119-0.304,0.218-0.616,0.298-0.939l3.168,3.192v0.9v0.7L181.818,95.561z M180.754,97.295
					c0.146-0.172,0.277-0.351,0.399-0.533c0.147-0.214,0.281-0.431,0.4-0.657l3.837,3.864v0.812v1.174c0,0.004,0,0.008,0,0.012
					L180.754,97.295z M166.592,100.258l-1.176,1.167v-4.386h4.418l-1.183,1.174l0.099,0.089c1.529,1.341,3.377,1.991,5.452,1.991
					c2.271,0,4.21-0.72,5.816-2.216c0.174-0.162,0.338-0.33,0.496-0.502l4.829,4.866c-0.146,0.671-0.63,1.008-1.447,1.008
					c-1.053,0-1.551-0.498-1.496-1.495l0.055-2.161c-2.214,2.271-4.982,3.435-8.253,3.435c-2.884,0-5.388-0.961-7.461-2.833
					L166.592,100.258z M182.393,84.575l1.15-1.146v4.418h-4.431l1.195-1.19l-0.076-0.087c-0.07-0.079-0.14-0.158-0.213-0.235
					c-1.606-1.718-3.546-2.549-5.816-2.549c-2.269,0-4.209,0.831-5.813,2.438c-0.239,0.238-0.458,0.481-0.661,0.731l-2.108-2.12
					c0.209-0.243,0.431-0.482,0.664-0.716c2.158-2.16,4.819-3.268,7.918-3.268c3.104,0,5.761,1.165,7.922,3.435
					c0.068,0.072,0.135,0.145,0.201,0.216L182.393,84.575z M167.5,87.252c-0.142,0.189-0.272,0.384-0.392,0.58
					c-0.133,0.215-0.253,0.433-0.363,0.656l-2.18-2.195c0.118-0.194,0.243-0.385,0.373-0.574c0.143-0.201,0.292-0.402,0.448-0.597
					L167.5,87.252z M166.501,89.048c-0.037,0.092-0.071,0.183-0.104,0.274c-0.109,0.312-0.197,0.63-0.268,0.957l-2.359-2.379
					c0.121-0.312,0.259-0.617,0.41-0.916c0.032-0.058,0.062-0.119,0.092-0.178L166.501,89.048z M165.992,91.187
					c-0.029,0.278-0.042,0.563-0.042,0.853c0,0.131,0.004,0.261,0.007,0.39l-2.716-2.735c0.028-0.147,0.063-0.296,0.101-0.44
					c0.046-0.195,0.101-0.389,0.158-0.578L165.992,91.187z M166.097,93.688c0.033,0.181,0.073,0.36,0.118,0.539
					c0.075,0.304,0.172,0.602,0.283,0.892l-3.476-3.502c0.006-0.183,0.016-0.36,0.028-0.542c0.014-0.139,0.027-0.277,0.042-0.414
					L166.097,93.688z"/>
			</g>
		</g>
	</g>
</g>
</svg>
